{"title":"Taking Flight (2015) [Animated Short 1080p EN FR NL Subs]","uid":15936752,"size":175826908,"categoryP":"video","categoryS":"hd___movies","magnet":"?xt=urn:btih:23d92af60725e739b43e1b9909877b6623dc5580&amp;dn=Taking+Flight+%282015%29+%5BAnimated+Short+1080p+EN+FR+NL+Subs%5D&amp;tr=udp%3A%2F%2Ftracker.leechers-paradise.org%3A6969&amp;tr=udp%3A%2F%2Fzer0day.ch%3A1337&amp;tr=udp%3A%2F%2Fopen.demonii.com%3A1337&amp;tr=udp%3A%2F%2Ftracker.coppersurfer.tk%3A6969&amp;tr=udp%3A%2F%2Fexodus.desync.com%3A6969","seeders":4,"leechers":3,"uploader":"ADHDerby","files":3,"time":1475409331,"description":"Taking Flight is a short film inspired by the life and heritage of Antonio Pasin, inventor of the Radio Flyer wagon. In this fictional tribute to Pasin's legacy, what begins as a small boy's over-scheduled, over supervised, boring day with Grandpa turns into a larger-than-life journey, narrowly escaping wild monkeys and battling aliens to save the universe. Through the power of imagination and epic adventure, a boy learns to be a kid, a father learns to be a dad, a grandpa reminds all of us what childhood is all about.\r\n\r\nDirector                       : Brandon Oldenburg\r\nPerformers                     : Asher Blinkoff, Kevin Rahm, Ray Wise\r\nWriters                        : Limbert Fabian (story), Brandon Oldenburg (screenplay)\r\nProducers                      : Iddo Lampton Enochs Jr. / Robert Pasin\r\nProduction studio              : Moonbot Studios\r\nGenre                          : Animation, Adventure, Family\r\nContentType                    : Short Film\r\nRecorded date                  : 2015-09-18\r\nSource                         : WEBRip\r\n\r\n\r\n[General]\r\nFormat                         : MPEG-4\r\nFormat profile                 : Base Media\r\nCodec ID                       : isom\r\nFile size                      : 167 MiB\r\nDuration                       : 5mn 19s\r\nOverall bit rate mode          : Variable\r\nOverall bit rate               : 4389 Kbps\r\nCover                          : Yes\r\nContentRating                  : mpaa|G|100|\r\nAppleStoreCatalogID            : 364305\r\n\r\n[Video]\r\nFormat                         : AVC\r\nFormat/Info                    : Advanced Video Codec\r\nFormat profile                 :   \r\nFormat settings, CABAC         : Yes\r\nFormat settings, ReFrames      : 4 frames\r\nCodec ID                       : avc1\r\nCodec ID/Info                  : Advanced Video Coding\r\nBit rate                       : 4112 Kbps\r\nMaximum bit rate               : 10.0 Mbps\r\nWidth                          : 1920 pixels\r\nHeight                         : 1080 pixels\r\nDisplay aspect ratio           : 16:9\r\nFrame rate mode                : Constant\r\nFrame rate                     : 24.000 fps\r\nColor space                    : YUV\r\nChroma subsampling             : 4:2:0\r\nBit depth                      : 8 bits\r\nScan type                      : Progressive\r\nBits/(Pixel*Frame)             : 0.083\r\nStream size                    : 157 MiB (94%)\r\nLanguage                       : English\r\n\r\n[Audio]\r\nFormat                         : AAC\r\nFormat/Info                    : Advanced Audio Codec\r\nFormat profile                 : LC\r\nCodec ID                       : 40\r\nBit rate mode                  : Variable\r\nBit rate                       : 256 Kbps\r\nMaximum bit rate               : 265 Kbps\r\nChannel(s)                     : 2 channels\r\nChannel positions              : Front: L R\r\nSampling rate                  : 48.0 KHz\r\nCompression mode               : Lossy\r\nStream size                    : 9.76 MiB (6%)\r\nLanguage                       : English\r\n\r\n[Subtitles]\r\nFormat                         : Timed Text\r\nCodec ID                       : tx3g\r\nLanguages                      : English, French, Dutch\r\n\r\n\r\nThe English and French Subtitles are by Subtitled Trailers.\r\nThe Dutch subtitles are created by me.\r\n\r\nThis movie is completely smartphone-ready (it contains subtitles, artwork and movie info like movies from a store).\r\nJust sync it to your smartphone and you're done.\r\n\r\n\r\nCheers,\r\n\r\nADHDerby","torrent":{"xt":"urn:btih:23d92af60725e739b43e1b9909877b6623dc5580","amp;dn":"Taking+Flight+%282015%29+%5BAnimated+Short+1080p+EN+FR+NL+Subs%5D","amp;tr":["udp%3A%2F%2Ftracker.leechers-paradise.org%3A6969","udp%3A%2F%2Fzer0day.ch%3A1337","udp%3A%2F%2Fopen.demonii.com%3A1337","udp%3A%2F%2Ftracker.coppersurfer.tk%3A6969","udp%3A%2F%2Fexodus.desync.com%3A6969"],"infoHash":"23d92af60725e739b43e1b9909877b6623dc5580","infoHashBuffer":{"type":"Buffer","data":[35,217,42,246,7,37,231,57,180,62,27,153,9,135,123,102,35,220,85,128]},"announce":[],"urlList":[]}}